<svg id="Layer_1" data-name="Layer 1" xmlns="http://www.w3.org/2000/svg" viewBox="0 0 200 143"><defs><style>.cls-1{fill:#0989ca;}.cls-2{fill:#2f3c65;}</style></defs><title>fpx</title><path class="cls-1" d="M29.48,56.51V44.26s-.81-10.53-7.6-2.43L4.27,65.52a8.34,8.34,0,0,0-2.13,6,8.34,8.34,0,0,0,2.13,6l17.61,23.69c6.79,8.1,7.6-2.43,7.6-2.43V86.49l-7.39-9.82c-2.64-3-2.54-5.17-2.54-5.17s-.1-2.13,2.54-5.17Z"/><path class="cls-2" d="M34.81,56.51V44.26s.81-10.53,7.59-2.43L60,65.52a8.36,8.36,0,0,1,2.12,6,8.36,8.36,0,0,1-2.12,6L42.4,101.17c-6.78,8.1-7.59-2.43-7.59-2.43V86.49l7.39-9.82c2.63-3,2.53-5.17,2.53-5.17s.1-2.13-2.53-5.17Z"/><polygon class="cls-2" points="105.21 56.71 105.21 46.59 84.05 46.59 73.93 46.59 73.93 56.71 73.93 65.62 73.93 75.75 73.93 93.77 84.05 93.77 84.05 75.75 104 75.75 104 65.62 84.05 65.62 84.05 56.71 105.21 56.71"/><path class="cls-2" d="M148,60.8v-.34h0c-.1-3.4-1.48-13.92-14.73-13.86H112.81V93.77h10.12V75.21h10.29c13.25.06,14.63-10.46,14.73-13.87h0V60.8Zm-15.54,5.5h-9.48V55.5h9.48s4.76-.69,5,5.4C137.21,67,132.56,66.22,132.41,66.3Z"/><polygon class="cls-2" points="197.86 93.77 180.41 69.73 197.17 46.59 184.34 46.59 173.97 60.87 163.6 46.59 150.77 46.59 167.54 69.73 150.08 93.77 163 93.77 173.97 78.62 184.95 93.77 197.86 93.77"/></svg>