<svg id="Layer_4" data-name="Layer 4" xmlns="http://www.w3.org/2000/svg" viewBox="0 0 635.91 369.59"><defs><style>.cls-1{fill:#0a0580;}.cls-2{fill:none;}.cls-3{fill:#0b7bce;}.cls-4{fill:#f90818;}</style></defs><title>lda</title><path class="cls-1" d="M49.24,341h5v49.1H66.72v5.27H49.24Z" transform="translate(-49.24 -34.39)"/><path class="cls-1" d="M75.53,379.05l-2.8,16.31H68.08L77.72,341H83l9.35,54.37H87.65l-2.78-16.31Zm8.68-5L82,360.25c-.62-3.86-1.18-8.34-1.69-12.4h-.21c-.48,4.12-1.1,8.76-1.7,12.45L76.2,374.07Z" transform="translate(-49.24 -34.39)"/><path class="cls-1" d="M97.63,341.76a21.41,21.41,0,0,1,6.91-1.05c3.75,0,6.94,1.05,9.13,3.76,1.79,2.18,2.72,5.47,2.72,9.32,0,5.53-2.33,9.95-6.36,12.06v.21c4.8,1.68,7.67,6.76,7.67,13.88a18.74,18.74,0,0,1-3,10.76c-2.35,3.49-6.19,4.94-11,4.94a27.79,27.79,0,0,1-6.16-.53Zm4.69,22.29h2.18c3.85,0,7.16-3.92,7.16-9.6,0-5-1.76-8.89-6.81-8.89a6.86,6.86,0,0,0-2.53.38Zm0,26.36a9.1,9.1,0,0,0,2.4.28c4.9,0,8.08-3.76,8.08-10.8,0-7.47-4-11.05-8.41-11.1h-2.07Z" transform="translate(-49.24 -34.39)"/><path class="cls-1" d="M129.11,340.34v36.43c0,9.83,2.6,13.11,5.86,13.11,3.63,0,6-3.53,6-13.11V340.34h4.89v35.47c0,14.13-4.6,19.55-10.95,19.55s-10.68-5.34-10.68-18.81V340.34Z" transform="translate(-49.24 -34.39)"/><path class="cls-1" d="M159,378.4l-2.64,16.31h-4.4L161,340.34h5l8.84,54.37h-4.48l-2.63-16.31Zm8.22-5-2.08-13.83c-.59-3.85-1.12-8.33-1.6-12.4h-.2c-.45,4.12-1,8.77-1.61,12.46l-2.09,13.77Z" transform="translate(-49.24 -34.39)"/><path class="cls-1" d="M180.84,395.36V341h4.79l8.18,25.5c1.86,5.84,4.16,13,5.7,18.92h.13c-.4-8.56-.62-15.57-.62-25V341h4.58v54.37h-4.79l-8.47-26.15c-1.8-5.5-3.71-11.66-5.29-18.46h-.13c.38,7.28.5,14.17.5,25.78v18.83Z" transform="translate(-49.24 -34.39)"/><path class="cls-1" d="M234.73,338.46c-3.85,7.23-7,18.12-7,32.81,0,14.45,3.2,25.38,7,32.7h-4.06c-3.54-6.11-7.41-17-7.41-32.73s3.87-26.7,7.41-32.78Z" transform="translate(-49.24 -34.39)"/><path class="cls-1" d="M260.21,341v23.33h12V341H277v54.37h-4.86V370h-12v25.4h-4.86V341Z" transform="translate(-49.24 -34.39)"/><path class="cls-1" d="M308.92,367.16c0,20.35-5.33,28.2-12,28.2-6.9,0-11.53-9.61-11.53-27.88,0-18,5-27.79,12.21-27.79S308.92,349.79,308.92,367.16Zm-18.63.37c0,11.19,1.66,22.38,6.95,22.38S304,378,304,367.36c0-10.15-1.42-22.21-6.82-22.21C292,345.15,290.29,356.49,290.29,367.53Z" transform="translate(-49.24 -34.39)"/><path class="cls-1" d="M315.84,341h5v49.1h12.33v5.27H315.84Z" transform="translate(-49.24 -34.39)"/><path class="cls-1" d="M337.48,341.48a18.32,18.32,0,0,1,6.63-1.05c4.53,0,7.77,1.41,10.13,4.09,3.36,3.65,5.83,10.68,5.83,22,0,12.44-2.4,19.2-5.18,23-2.79,4-6.95,5.85-11.91,5.85a25.13,25.13,0,0,1-5.5-.53Zm4.9,48.52a8.61,8.61,0,0,0,1.88.16c5.44,0,10.71-5,10.71-23.44,0-13.69-3.34-21.22-10.28-21.22a8.9,8.9,0,0,0-2.31.3Z" transform="translate(-49.24 -34.39)"/><path class="cls-1" d="M373.88,341v54.37h-6V341Z" transform="translate(-49.24 -34.39)"/><path class="cls-1" d="M381.71,395.36V341h4.71l8.05,25.5c1.83,5.84,4.09,13,5.61,18.92h.13c-.4-8.56-.62-15.57-.62-25V341h4.51v54.37h-4.71l-8.33-26.15c-1.78-5.5-3.66-11.66-5.21-18.46h-.13c.38,7.28.49,14.17.49,25.78v18.83Z" transform="translate(-49.24 -34.39)"/><path class="cls-1" d="M433.69,393.48a20.91,20.91,0,0,1-8.41,1.88A13.6,13.6,0,0,1,414,390.07c-3.43-4.2-5.74-11.69-5.7-21.66.09-21.17,9.55-28.39,17.89-28.39a13.81,13.81,0,0,1,6.8,1.52l-1.22,5.37a10.34,10.34,0,0,0-5.48-1.32c-5.92,0-12.36,5.44-12.36,22.26S419.53,390,425.27,390a6.75,6.75,0,0,0,3.31-.62V371.63h-6.11v-5.15h11.22Z" transform="translate(-49.24 -34.39)"/><path class="cls-1" d="M441.15,387.7a10.24,10.24,0,0,0,5.93,2.21c4.33,0,6.91-3.74,6.91-9.24,0-5-2.23-8.08-5.46-11.3-3.26-3-7.79-8.06-7.79-15.08,0-8.22,4.37-14.27,10.93-14.27a9.13,9.13,0,0,1,5.78,2l-1.13,5.31a7.41,7.41,0,0,0-4.93-1.85c-4,0-6,4-6,7.78,0,5.39,2.14,7.54,6.07,11.18,5,4.64,7.18,9.64,7.18,15.66,0,9.4-5,15.27-11.57,15.27a11.22,11.22,0,0,1-7-2.38Z" transform="translate(-49.24 -34.39)"/><path class="cls-1" d="M476.7,404c3.74-7.28,6.85-18.32,6.85-32.82s-3.11-25.41-6.85-32.69h3.95c3.44,6,7.2,16.74,7.2,32.71s-3.76,26.62-7.2,32.8Z" transform="translate(-49.24 -34.39)"/><path class="cls-1" d="M507.44,387.73a9.87,9.87,0,0,0,5.8,2.21c4.22,0,6.74-3.73,6.74-9.24,0-5-2.18-8.08-5.33-11.29-3.18-3-7.61-8.06-7.61-15.08,0-8.22,4.27-14.28,10.68-14.28a8.76,8.76,0,0,1,5.65,2l-1.11,5.31a7.09,7.09,0,0,0-4.81-1.86c-4,0-5.83,4-5.83,7.79,0,5.38,2.1,7.54,5.94,11.17,4.86,4.65,7,9.64,7,15.66,0,9.4-4.9,15.28-11.31,15.28a10.83,10.83,0,0,1-6.81-2.38Z" transform="translate(-49.24 -34.39)"/><path class="cls-1" d="M530.86,341.31a18.69,18.69,0,0,1,6.69-1.05c4.59,0,7.85,1.41,10.24,4.09,3.39,3.65,5.89,10.68,5.89,22,0,12.44-2.43,19.2-5.24,23-2.81,4-7,5.85-12,5.85a25.58,25.58,0,0,1-5.56-.53Zm4.95,48.52a8.82,8.82,0,0,0,1.9.16c5.49,0,10.81-4.95,10.81-23.44,0-13.69-3.37-21.22-10.38-21.22a9.12,9.12,0,0,0-2.33.3Z" transform="translate(-49.24 -34.39)"/><path class="cls-1" d="M561.48,394.88V340.5H566l7.73,25.5c1.77,5.84,3.94,13,5.4,18.92h.13c-.38-8.55-.59-15.57-.59-25V340.5H583v54.38h-4.53l-8-26.16c-1.71-5.49-3.52-11.66-5-18.45h-.13c.36,7.27.48,14.16.48,25.77v18.84Z" transform="translate(-49.24 -34.39)"/><path class="cls-1" d="M604.15,341.31a21.79,21.79,0,0,1,7-1.05c3.77,0,7,1.05,9.19,3.76,1.81,2.19,2.74,5.47,2.74,9.32,0,5.53-2.34,10-6.4,12.06v.21c4.83,1.68,7.72,6.76,7.72,13.88a18.66,18.66,0,0,1-3,10.76c-2.36,3.5-6.24,4.94-11,4.94a28.33,28.33,0,0,1-6.21-.53Zm4.73,22.29h2.2c3.88,0,7.21-3.92,7.21-9.6,0-5-1.77-8.89-6.86-8.89a6.94,6.94,0,0,0-2.55.38Zm0,26.37a9.25,9.25,0,0,0,2.41.27c4.94,0,8.15-3.76,8.15-10.8,0-7.47-4-11.05-8.47-11.1h-2.09Z" transform="translate(-49.24 -34.39)"/><path class="cls-1" d="M636.16,340.5v23.34h12.48V340.5h5.07v54.38h-5.07v-25.4H636.16v25.4h-5.07V340.5Z" transform="translate(-49.24 -34.39)"/><path class="cls-1" d="M662.23,341.31a18.28,18.28,0,0,1,6.63-1.05c4.54,0,7.78,1.41,10.15,4.09,3.36,3.65,5.83,10.68,5.83,22,0,12.44-2.4,19.2-5.18,23-2.8,4-7,5.85-11.92,5.85a25.16,25.16,0,0,1-5.51-.53Zm4.9,48.52A8.74,8.74,0,0,0,669,390c5.44,0,10.71-4.95,10.71-23.44,0-13.69-3.34-21.22-10.29-21.22a9,9,0,0,0-2.31.3Z" transform="translate(-49.24 -34.39)"/><path class="cls-2" d="M326,102.11H308.21V247.53H326a72.71,72.71,0,0,0,72.71-72.71h0A72.71,72.71,0,0,0,326,102.11Z" transform="translate(-49.24 -34.39)"/><path class="cls-2" d="M582.49,93.55h0a29.59,29.59,0,0,0-29.59,29.59v29.94h59.17V123.14A29.58,29.58,0,0,0,582.49,93.55Z" transform="translate(-49.24 -34.39)"/><path class="cls-1" d="M582.49,34.39h0A102.65,102.65,0,0,0,479.83,137V313.12H552.9V221.86h59.17v91.26h73.07V137A102.65,102.65,0,0,0,582.49,34.39Zm29.58,123.23H552.9V127.68a29.59,29.59,0,0,1,29.59-29.59h0a29.58,29.58,0,0,1,29.58,29.59Z" transform="translate(-49.24 -34.39)"/><path class="cls-3" d="M332.09,34.39H236.21V243.12H132.13a12.06,12.06,0,0,1-12-12.05V44.6l-70,72.72V231.07a82.06,82.06,0,0,0,82.05,82.05h200A139.37,139.37,0,0,0,471.46,173.75h0A139.36,139.36,0,0,0,332.09,34.39Zm66.65,140.43A72.71,72.71,0,0,1,326,247.53H308.21V102.11H326a72.71,72.71,0,0,1,72.71,72.71Z" transform="translate(-49.24 -34.39)"/><polygon class="cls-4" points="0.85 0 0.85 72.71 70.85 0 0.85 0"/></svg>